<svg width="80" height="80" viewBox="0 0 80 80" fill="none" xmlns="http://www.w3.org/2000/svg">
<path fill-rule="evenodd" clip-rule="evenodd" d="M40 72C57.6731 72 72 57.6731 72 40C72 22.3269 57.6731 8 40 8C22.3269 8 8 22.3269 8 40C8 57.6731 22.3269 72 40 72ZM40 80C62.0914 80 80 62.0914 80 40C80 17.9086 62.0914 0 40 0C17.9086 0 0 17.9086 0 40C0 62.0914 17.9086 80 40 80Z" fill="white" fill-opacity="0.2"/>
<path fill-rule="evenodd" clip-rule="evenodd" d="M74 40C74 58.7777 58.7777 74 40 74C21.2223 74 6 58.7777 6 40C6 21.2223 21.2223 6 40 6C58.7777 6 74 21.2223 74 40ZM19.7501 29.556C19.7648 26.439 22.2962 23.9167 25.4167 23.9167H54.5833C57.7038 23.9167 60.2352 26.439 60.2499 29.556C60.2502 29.572 60.2502 29.5879 60.25 29.6038V50.4167C60.25 53.5463 57.7129 56.0834 54.5833 56.0834H25.4167C22.2871 56.0834 19.75 53.5463 19.75 50.4167V29.6038C19.7498 29.5879 19.7498 29.5719 19.7501 29.556ZM22.75 32.3861V50.4167C22.75 51.8894 23.9439 53.0834 25.4167 53.0834H54.5833C56.0561 53.0834 57.25 51.8894 57.25 50.4167V32.3861L40.8321 43.3314C40.3282 43.6673 39.6718 43.6673 39.1679 43.3314L22.75 32.3861ZM57.1476 28.8488L40 40.2805L22.8524 28.8488C23.1714 27.7333 24.1987 26.9167 25.4167 26.9167H54.5833C55.8013 26.9167 56.8286 27.7333 57.1476 28.8488Z" fill="white" fill-opacity="0.9"/>
</svg>
