<svg width="80" height="80" viewBox="0 0 80 80" fill="none" xmlns="http://www.w3.org/2000/svg">
<path fill-rule="evenodd" clip-rule="evenodd" d="M40 72C57.6731 72 72 57.6731 72 40C72 22.3269 57.6731 8 40 8C22.3269 8 8 22.3269 8 40C8 57.6731 22.3269 72 40 72ZM40 80C62.0914 80 80 62.0914 80 40C80 17.9086 62.0914 0 40 0C17.9086 0 0 17.9086 0 40C0 62.0914 17.9086 80 40 80Z" fill="white" fill-opacity="0.2"/>
<path fill-rule="evenodd" clip-rule="evenodd" d="M40 74C58.7777 74 74 58.7777 74 40C74 21.2223 58.7777 6 40 6C21.2223 6 6 21.2223 6 40C6 58.7777 21.2223 74 40 74ZM55.0113 29.0535C55.1591 27.8847 54.1889 26.75 52.75 26.75H46.3852C46.256 28.5943 45.8906 30.3748 45.3187 32.0605L47.6332 34.375C48.083 34.8248 48.2002 35.5094 47.9256 36.0832C45.4497 41.2568 41.2568 45.4497 36.0831 47.9256C35.5094 48.2002 34.8248 48.083 34.375 47.6332L32.0605 45.3187C30.3747 45.8906 28.5943 46.256 26.75 46.3852V52.75C26.75 54.1889 27.8847 55.1591 29.0535 55.0113C42.5794 53.3009 53.3009 42.5794 55.0113 29.0535ZM52.75 23.75C55.7294 23.75 58.3941 26.2154 57.9876 29.4299C56.1054 44.3142 44.3142 56.1054 29.4299 57.9876C26.2154 58.3941 23.75 55.7294 23.75 52.75V45.9375C23.75 44.5385 24.873 43.4795 26.1747 43.4144C28.1868 43.3138 30.1108 42.8866 31.8962 42.1853C32.4515 41.9672 33.0833 42.0989 33.5052 42.5208L35.7268 44.7424C39.5427 42.6869 42.6869 39.5427 44.7424 35.7268L42.5208 33.5052C42.0989 33.0833 41.9672 32.4515 42.1853 31.8962C42.8866 30.1108 43.3138 28.1868 43.4144 26.1747C43.4795 24.873 44.5385 23.75 45.9375 23.75H52.75ZM38.6497 31.41C38.6497 30.5816 37.9781 29.91 37.1497 29.91C36.1988 29.91 35.2573 30.0973 34.3788 30.4612C33.5003 30.825 32.7021 31.3584 32.0298 32.0307C31.3574 32.7031 30.8241 33.5013 30.4602 34.3798C30.0963 35.2582 29.909 36.1998 29.909 37.1506C29.909 37.9791 30.5806 38.6506 31.409 38.6506C32.2375 38.6506 32.909 37.9791 32.909 37.1506C32.909 36.5937 33.0187 36.0423 33.2318 35.5278C33.4449 35.0133 33.7573 34.5458 34.1511 34.1521C34.5449 33.7583 35.0123 33.4459 35.5268 33.2328C36.0413 33.0197 36.5928 32.91 37.1497 32.91C37.9781 32.91 38.6497 32.2384 38.6497 31.41ZM35.75 24.1018C36.5784 24.1018 37.25 24.7733 37.25 25.6018C37.25 26.4302 36.5784 27.1018 35.75 27.1018C34.6143 27.1018 33.4898 27.3254 32.4405 27.7601C31.3913 28.1947 30.4379 28.8317 29.6349 29.6347C28.8318 30.4378 28.1948 31.3911 27.7602 32.4404C27.3256 33.4896 27.1019 34.6142 27.1019 35.7499C27.1019 36.5783 26.4303 37.2499 25.6019 37.2499C24.7735 37.2499 24.1019 36.5783 24.1019 35.7499C24.1019 34.2202 24.4032 32.7055 24.9886 31.2923C25.5739 29.8791 26.4319 28.595 27.5136 27.5134C28.5952 26.4318 29.8793 25.5738 31.2925 24.9884C32.7057 24.403 34.2204 24.1018 35.75 24.1018Z" fill="white" fill-opacity="0.9"/>
</svg>
