<svg width="30" height="30" viewBox="0 0 30 30" fill="none" xmlns="http://www.w3.org/2000/svg">
<g clip-path="url(#clip0_405_7497)">
<path fill-rule="evenodd" clip-rule="evenodd" d="M15 28.5C7.54415 28.5 1.5 22.4558 1.5 15C1.5 7.54416 7.54415 1.5 15 1.5C22.4558 1.5 28.5 7.54416 28.5 15C28.5 22.4558 22.4558 28.5 15 28.5ZM15 30C6.71573 30 -1.19209e-06 23.2843 -1.19209e-06 15C-1.19209e-06 6.71573 6.71573 0 15 0C23.2843 0 30 6.71573 30 15C30 23.2843 23.2843 30 15 30Z" fill="#222222"/>
<path d="M1.5 15C1.5 22.4558 7.54415 28.5 15 28.5C22.4558 28.5 28.5 22.4558 28.5 15C28.5 7.54416 22.4558 1.5 15 1.5C7.54415 1.5 1.5 7.54416 1.5 15Z" fill="#222222"/>
<path d="M18.5999 22.2002L11.3999 15.0002L18.5999 7.8002" stroke="white" stroke-width="3"/>
</g>
<defs>
<clipPath id="clip0_405_7497">
<rect width="30" height="30" fill="white" transform="matrix(-1 0 0 1 30 0)"/>
</clipPath>
</defs>
</svg>
