<svg width="40" height="40" viewBox="0 0 40 40" fill="none" xmlns="http://www.w3.org/2000/svg">
<path fill-rule="evenodd" clip-rule="evenodd" d="M4 30.5C4 29.6716 4.73873 29 5.65 29H35.35C36.2613 29 37 29.6716 37 30.5C37 31.3284 36.2613 32 35.35 32H5.65C4.73873 32 4 31.3284 4 30.5Z" fill="#fff"/>
<path fill-rule="evenodd" clip-rule="evenodd" d="M4 19.5C4 18.6716 4.73873 18 5.65 18H35.35C36.2613 18 37 18.6716 37 19.5C37 20.3284 36.2613 21 35.35 21H5.65C4.73873 21 4 20.3284 4 19.5Z" fill="#fff"/>
<path fill-rule="evenodd" clip-rule="evenodd" d="M4 9.5C4 8.67157 4.73873 8 5.65 8H35.35C36.2613 8 37 8.67157 37 9.5C37 10.3284 36.2613 11 35.35 11H5.65C4.73873 11 4 10.3284 4 9.5Z" fill="#fff"/>
</svg>
