<svg width="40" height="40" viewBox="0 0 40 40" fill="none" xmlns="http://www.w3.org/2000/svg">
<path fill-rule="evenodd" clip-rule="evenodd" d="M8.83289 7.83263C9.41868 7.24685 10.4159 7.29433 11.0603 7.9387L32.0614 28.9398C32.7057 29.5841 32.7532 30.5814 32.1674 31.1672C31.5816 31.7529 30.5844 31.7055 29.94 31.0611L8.93896 10.06C8.2946 9.41565 8.24711 8.41842 8.83289 7.83263Z" fill="#fff"/>
<path fill-rule="evenodd" clip-rule="evenodd" d="M8.83312 31.1673C8.24733 30.5816 8.29482 29.5843 8.93919 28.94L29.9403 7.93889C30.5846 7.29453 31.5819 7.24704 32.1676 7.83283C32.7534 8.41861 32.7059 9.41585 32.0616 10.0602L11.0605 31.0613C10.4161 31.7056 9.41891 31.7531 8.83312 31.1673Z" fill="#fff"/>
</svg>
