<svg width="34" height="34" viewBox="0 0 34 34" fill="none" xmlns="http://www.w3.org/2000/svg">
<path fill-rule="evenodd" clip-rule="evenodd" d="M17 34C26.3888 34 34 26.3888 34 17C34 7.61116 26.3888 0 17 0C7.61116 0 0 7.61116 0 17C0 26.3888 7.61116 34 17 34ZM19.0484 7C17.7037 7 16.414 7.57028 15.4632 8.58539C14.5123 9.60049 13.9781 10.9773 13.9781 12.4128V14.3394H12.1734C11.7463 14.3394 11.4 14.7091 11.4 15.1651V18.8349C11.4 19.2909 11.7463 19.6606 12.1734 19.6606H13.9781V26.1743C13.9781 26.6303 14.3244 27 14.7516 27H18.1891C18.6162 27 18.9625 26.6303 18.9625 26.1743V19.6606H20.7672C21.1221 19.6606 21.4314 19.4027 21.5175 19.0351L22.3769 15.3654C22.4347 15.1187 22.3828 14.8574 22.2362 14.657C22.0896 14.4566 21.8647 14.3394 21.6266 14.3394H18.9625V12.4128C18.9625 12.3885 18.9715 12.3652 18.9877 12.348C19.0038 12.3308 19.0256 12.3211 19.0484 12.3211H21.6266C22.0537 12.3211 22.4 11.9514 22.4 11.4954V7.82569C22.4 7.36967 22.0537 7 21.6266 7H19.0484ZM16.557 9.75308C17.2178 9.04767 18.114 8.65138 19.0484 8.65138H20.8531V10.6697H19.0484C18.6154 10.6697 18.2001 10.8534 17.8939 11.1803C17.5876 11.5072 17.4156 11.9505 17.4156 12.4128V15.1651C17.4156 15.6212 17.7619 15.9908 18.1891 15.9908H20.636L20.1633 18.0092H18.1891C17.7619 18.0092 17.4156 18.3788 17.4156 18.8349V25.3486H15.525V18.8349C15.525 18.3788 15.1787 18.0092 14.7516 18.0092H12.9469V15.9908H14.7516C15.1787 15.9908 15.525 15.6212 15.525 15.1651V12.4128C15.525 11.4152 15.8962 10.4585 16.557 9.75308Z" fill="white" fill-opacity="0.9"/>
</svg>
