<svg width="40" height="40" viewBox="0 0 40 40" fill="none" xmlns="http://www.w3.org/2000/svg">
<path fill-rule="evenodd" clip-rule="evenodd" d="M20 36C28.8366 36 36 28.8366 36 20C36 11.1634 28.8366 4 20 4C11.1634 4 4 11.1634 4 20C4 28.8366 11.1634 36 20 36ZM20 40C31.0457 40 40 31.0457 40 20C40 8.9543 31.0457 0 20 0C8.9543 0 0 8.9543 0 20C0 31.0457 8.9543 40 20 40Z" fill="white" fill-opacity="0.2"/>
<path fill-rule="evenodd" clip-rule="evenodd" d="M20 37C29.3888 37 37 29.3888 37 20C37 10.6112 29.3888 3 20 3C10.6112 3 3 10.6112 3 20C3 29.3888 10.6112 37 20 37ZM22.0484 10C20.7037 10 19.414 10.5703 18.4632 11.5854C17.5123 12.6005 16.9781 13.9773 16.9781 15.4128V17.3394H15.1734C14.7463 17.3394 14.4 17.7091 14.4 18.1651V21.8349C14.4 22.2909 14.7463 22.6606 15.1734 22.6606H16.9781V29.1743C16.9781 29.6303 17.3244 30 17.7516 30H21.1891C21.6162 30 21.9625 29.6303 21.9625 29.1743V22.6606H23.7672C24.1221 22.6606 24.4314 22.4027 24.5175 22.0351L25.3769 18.3654C25.4347 18.1187 25.3828 17.8574 25.2362 17.657C25.0896 17.4566 24.8647 17.3394 24.6266 17.3394H21.9625V15.4128C21.9625 15.3885 21.9715 15.3652 21.9877 15.348C22.0038 15.3308 22.0256 15.3211 22.0484 15.3211H24.6266C25.0537 15.3211 25.4 14.9514 25.4 14.4954V10.8257C25.4 10.3697 25.0537 10 24.6266 10H22.0484ZM19.557 12.7531C20.2178 12.0477 21.114 11.6514 22.0484 11.6514H23.8531V13.6697H22.0484C21.6154 13.6697 21.2001 13.8534 20.8939 14.1803C20.5876 14.5072 20.4156 14.9505 20.4156 15.4128V18.1651C20.4156 18.6212 20.7619 18.9908 21.1891 18.9908H23.636L23.1633 21.0092H21.1891C20.7619 21.0092 20.4156 21.3788 20.4156 21.8349V28.3486H18.525V21.8349C18.525 21.3788 18.1787 21.0092 17.7516 21.0092H15.9469V18.9908H17.7516C18.1787 18.9908 18.525 18.6212 18.525 18.1651V15.4128C18.525 14.4152 18.8962 13.4585 19.557 12.7531Z" fill="white" fill-opacity="0.9"/>
</svg>
