<svg width="16" height="16" viewBox="0 0 16 16" fill="none" xmlns="http://www.w3.org/2000/svg">
<path d="M15.68 9.01805V12.8871C15.68 13.1922 15.4342 13.4399 15.1314 13.4399C14.8286 13.4399 14.5829 13.1922 14.5829 12.8871V12.3344H1.41715V12.8871C1.41715 13.1922 1.17139 13.4399 0.868579 13.4399C0.565767 13.4399 0.320007 13.1922 0.320007 12.8871V9.01805C0.320007 8.10383 1.05838 7.35986 1.96572 7.35986H14.0343C14.9416 7.35986 15.68 8.10383 15.68 9.01805Z" fill="#222222"/>
<path d="M1.92 6.40006V3.10863C1.92 2.80582 2.16762 2.56006 2.47273 2.56006H13.5273C13.8324 2.56006 14.08 2.80582 14.08 3.10863V6.40006H12.4218V5.85149C12.4218 5.24641 11.926 4.75434 11.3164 4.75434H9.65818C9.04852 4.75434 8.55273 5.24641 8.55273 5.85149V6.40006H7.44727V5.85149C7.44727 5.24641 6.95147 4.75434 6.34182 4.75434H4.68363C4.07398 4.75434 3.57818 5.24641 3.57818 5.85149V6.40006H1.92Z" fill="#222222"/>
</svg>
