<svg width="16" height="16" viewBox="0 0 16 16" fill="none" xmlns="http://www.w3.org/2000/svg">
<g clip-path="url(#clip0_504_322)">
<path d="M1.69245 11.1377C1.88927 12.4608 2.99699 13.4762 4.30784 13.5747L3.95838 14.3255C3.81475 14.6338 3.94816 14.9998 4.25645 15.1434C4.56629 15.2873 4.93173 15.1512 5.07376 14.8454L5.65985 13.587H10.335L10.9211 14.8454C11.0634 15.1516 11.4291 15.287 11.7384 15.1434C12.0467 14.9998 12.1801 14.6338 12.0365 14.3255L11.604 13.3969C11.6047 13.3966 11.6055 13.3965 11.6062 13.3962C11.637 13.3901 11.6678 13.3777 11.6986 13.3654C12.4001 13.0701 12.9662 12.4977 13.2617 11.7716L14.1478 9.2793H1.45853L1.69245 11.1377Z" fill="#222222"/>
<path d="M14.7692 6.8178C14.706 6.8178 12.4352 6.8178 12.4984 6.8178V2.8978C12.4984 1.74087 11.5508 0.799316 10.3938 0.799316C9.51382 0.799316 8.75691 1.34086 8.44922 2.10393L8.03681 1.9624C7.71695 1.85164 7.36614 2.03009 7.25541 2.3501C7.14453 2.67011 7.32302 3.02085 7.64303 3.13165L9.57527 3.78395C9.83795 3.88887 10.2286 3.75558 10.3568 3.39626C10.4615 3.07625 10.2892 2.72547 9.9692 2.61471L9.61839 2.49778C9.76608 2.22085 10.0615 2.03009 10.3938 2.03009C10.8738 2.03009 11.2676 2.41778 11.2676 2.8978V6.8178C9.81969 6.8178 3.49248 6.8178 1.23077 6.8178C0.88612 6.8178 0.615387 7.09473 0.615387 7.43318C0.615387 7.77164 0.88612 8.04857 1.23077 8.04857H14.7692C15.1077 8.04857 15.3846 7.77164 15.3846 7.43318C15.3846 7.09473 15.1077 6.8178 14.7692 6.8178Z" fill="#222222"/>
</g>
<defs>
<clipPath id="clip0_504_322">
<rect width="16" height="16" fill="white"/>
</clipPath>
</defs>
</svg>
