<svg width="16" height="16" viewBox="0 0 16 16" fill="none" xmlns="http://www.w3.org/2000/svg">
<g clip-path="url(#clip0_504_328)">
<path d="M7.15167 8.84816C7.00191 8.6984 6.75845 8.6984 6.60869 8.84816L4.1918 11.2651V9.12003C4.1918 8.90806 4.01977 8.73603 3.8078 8.73603C3.59583 8.73603 3.4238 8.90806 3.4238 9.12003V12.192C3.4238 12.242 3.43378 12.2919 3.45375 12.3387C3.49215 12.4324 3.56741 12.5077 3.66188 12.5468C3.70796 12.5653 3.75788 12.576 3.8078 12.576H6.8798C7.09177 12.576 7.2638 12.404 7.2638 12.192C7.2638 11.9801 7.09177 11.808 6.8798 11.808H4.73477L7.1509 9.3919C7.30143 9.24138 7.30143 8.99869 7.15167 8.84816Z" fill="#222222"/>
<path d="M12.3389 3.4535C12.292 3.43507 12.2421 3.42432 12.1922 3.42432H9.12021C8.90824 3.42432 8.73621 3.59635 8.73621 3.80832C8.73621 4.02028 8.90824 4.19232 9.12021 4.19232H11.2652L8.8491 6.60844C8.69934 6.7582 8.69934 7.00166 8.8491 7.15142C8.9236 7.22668 9.0219 7.26432 9.12021 7.26432C9.21851 7.26432 9.31681 7.22668 9.39208 7.15219L11.8082 4.73529V6.88032C11.8082 7.09228 11.9802 7.26432 12.1922 7.26432C12.4042 7.26432 12.5762 7.09228 12.5762 6.88032V3.80832C12.5762 3.7584 12.5662 3.70848 12.5463 3.66163C12.5079 3.56793 12.4326 3.49267 12.3389 3.4535Z" fill="#222222"/>
<path d="M13.76 0.319824H2.24001C1.1817 0.319824 0.320007 1.18075 0.320007 2.23982V13.7598C0.320007 14.8189 1.1817 15.6798 2.24001 15.6798H13.76C14.8183 15.6798 15.68 14.8189 15.68 13.7598V2.23982C15.68 1.18075 14.8183 0.319824 13.76 0.319824ZM14.912 13.7598C14.912 14.395 14.3951 14.9118 13.76 14.9118H2.24001C1.60487 14.9118 1.08801 14.395 1.08801 13.7598V2.23982C1.08801 1.60469 1.60487 1.08782 2.24001 1.08782H13.76C14.3951 1.08782 14.912 1.60469 14.912 2.23982V13.7598Z" fill="#222222"/>
<path fill-rule="evenodd" clip-rule="evenodd" d="M-0.0799866 2.23992C-0.0799866 0.959832 0.9609 -0.0800781 2.24001 -0.0800781H13.76C15.0391 -0.0800781 16.08 0.959832 16.08 2.23992V13.7599C16.08 15.04 15.0391 16.0799 13.76 16.0799H2.24001C0.9609 16.0799 -0.0799866 15.04 -0.0799866 13.7599V2.23992ZM2.24001 1.48792C1.82579 1.48792 1.48801 1.8257 1.48801 2.23992V13.7599C1.48801 14.1741 1.82579 14.5119 2.24001 14.5119H13.76C14.1742 14.5119 14.512 14.1741 14.512 13.7599V2.23992C14.512 1.8257 14.1742 1.48792 13.76 1.48792H2.24001Z" fill="#222222"/>
</g>
<defs>
<clipPath id="clip0_504_328">
<rect width="16" height="16" fill="white"/>
</clipPath>
</defs>
</svg>
